/* XPM */
static char *result[] = {
/* columns rows colors chars-per-pixel */
"50 50 210 2 ",
"   c #020205",
".  c #03050B",
"X  c #0D0A09",
"o  c #13030D",
"O  c #0B0B1A",
"+  c #080918",
"@  c #0F101A",
"#  c #191818",
"$  c #080C21",
"%  c #0D132E",
"&  c #1F1722",
"*  c #252223",
"=  c #353433",
"-  c #7B1F1F",
";  c #70211D",
":  c #443D3E",
">  c #4B2C3A",
",  c #7E2832",
"<  c #7B2724",
"1  c #0F1B43",
"2  c #111D41",
"3  c #0F1A53",
"4  c #16214D",
"5  c #152673",
"6  c #404543",
"7  c #5D4858",
"8  c #535051",
"9  c #744F5E",
"0  c #63445A",
"q  c #705A66",
"w  c #747975",
"e  c #82272A",
"r  c #852B35",
"t  c #882A35",
"y  c #952E3A",
"u  c #8C343C",
"i  c #94333D",
"p  c #99353F",
"a  c #9C3B3A",
"s  c #A1383A",
"d  c #963641",
"f  c #9C3642",
"g  c #9C3C44",
"h  c #953840",
"j  c #A23746",
"k  c #A43A45",
"l  c #A53C48",
"z  c #AC3C4A",
"x  c #B23E4D",
"c  c #B83D4D",
"v  c #B83F50",
"b  c #9E4348",
"n  c #A4424C",
"m  c #AA424B",
"M  c #AB494E",
"N  c #A34547",
"B  c #B5414D",
"V  c #B9414F",
"C  c #AC504F",
"Z  c #B34451",
"A  c #BC4352",
"S  c #B94D57",
"D  c #A8535E",
"F  c #B55153",
"G  c #BC5559",
"H  c #BA5055",
"J  c #A75D66",
"K  c #B65A67",
"L  c #826E7B",
"P  c #B86166",
"I  c #CF4A4B",
"U  c #D54C4F",
"Y  c #CF524D",
"T  c #C34554",
"R  c #C74957",
"E  c #CB4957",
"W  c #CA465B",
"Q  c #C64D5C",
"!  c #CB4A5A",
"~  c #C64557",
"^  c #D34C5D",
"/  c #DA4E5E",
"(  c #D34E50",
")  c #C9575F",
"_  c #DC5654",
"`  c #DA505F",
"'  c #EB5B55",
"]  c #EF605C",
"[  c #F7635E",
"{  c #CB4962",
"}  c #D54C64",
"|  c #DA4E61",
" . c #DB4E6B",
".. c #D74B65",
"X. c #C55A67",
"o. c #DD5163",
"O. c #DE526A",
"+. c #DC5A69",
"@. c #D65564",
"#. c #DF4F70",
"$. c #DA5872",
"%. c #E24F62",
"&. c #E44C6B",
"*. c #E45365",
"=. c #E95467",
"-. c #E4516B",
";. c #EA5569",
":. c #EF586B",
">. c #F3596C",
",. c #E34F73",
"<. c #E84E70",
"1. c #E55175",
"2. c #EA5373",
"3. c #E75479",
"4. c #E7567A",
"5. c #DB616C",
"6. c #D46578",
"7. c #FB6761",
"8. c #F56A64",
"9. c #E56678",
"0. c #253CAC",
"q. c #3459DD",
"w. c #3554C7",
"e. c #3263FB",
"r. c #937688",
"t. c #DF5B88",
"y. c #EC5482",
"u. c #ED5588",
"i. c #EA5885",
"p. c #F45588",
"a. c #DA7A82",
"s. c #EE7C88",
"d. c #F777A7",
"f. c #988894",
"g. c #AB8396",
"h. c #D78B99",
"j. c #F98492",
"k. c #FA8A97",
"l. c #FB8699",
"z. c #FA8D9C",
"x. c #F68796",
"c. c #F9919C",
"v. c #F78AA6",
"b. c #F796A7",
"n. c #FA93A3",
"m. c #FB9AA6",
"M. c #FB94AA",
"N. c #FA9CAC",
"B. c #F78ABD",
"V. c #F989BF",
"C. c #F98FB3",
"Z. c #F79BB3",
"A. c #FB9CB2",
"S. c #FD9EBA",
"D. c #FB94B8",
"F. c #D1ABB9",
"G. c #FBA3B4",
"H. c #FDA8B4",
"J. c #FAA5BC",
"K. c #FBAABD",
"L. c #F6A8B3",
"P. c #E8BCBE",
"I. c #F1B7BD",
"U. c #FAA1AA",
"Y. c #F994C3",
"T. c #F69BC5",
"R. c #F889C0",
"E. c #FBA6C1",
"W. c #F6ABC1",
"Q. c #FBACC3",
"!. c #FBAECA",
"~. c #FFA6CA",
"^. c #FCB2C5",
"/. c #FDBDC6",
"(. c #F6B6CE",
"). c #FBB4CC",
"_. c #FCBACC",
"`. c #F7B3C3",
"'. c #E6BED3",
"]. c #FCB5D2",
"[. c #F2BCD5",
"{. c #FCBBD4",
"}. c #FCBEDA",
"|. c #FCB5DA",
" X c #FCBFE0",
".X c #F7C6CD",
"XX c #FDC3CB",
"oX c #EBCBDA",
"OX c #FCC1D6",
"+X c #F7C5DB",
"@X c #FCC3DC",
"#X c #F5CCD9",
"$X c #FCC9DE",
"%X c #F6C5D3",
"&X c #EDD0DE",
"*X c #F8D3D7",
"=X c #FDC5E2",
"-X c #F6CEE1",
";X c #FDCBE4",
":X c #FDCEE9",
">X c #F6D7E3",
",X c #FDD1E7",
"<X c #F3D8E5",
"1X c #FDD2E9",
"2X c #F9DBE9",
"3X c #F6D2E8",
"4X c #FEFDFC",
"5X c #FBF6F6",
"6X c #F6E1EA",
"7X c None",
/* pixels */
"7X7X7X7X7X7X7X7X7X7X7X7X7X7X7X7X7X7X>X#X>X7X7X7X7X7X7X7X7X7X7X7X7X7X7X7X7X7X7X7X7X7X7X7X7X7X7X7X7X7X",
"7X7X7X7X7X7X7X7X7X7X7X7X7X7X7X7X+X}.|.}.].).%X7X7X7X7X7X7X7X7X7X7X7X7X7X7X7X7X7X7X7X7X7X7X7X7X7X7X7X",
"7X7X7X7X7X7X7X7X7X7X7X7X7X7X2X=X X@X@X$X$X].).7X7X7X7X7X7X7X7X7X7X7X7X7X7X7X7X7X7X7X7X7X7X7X7X7X7X7X",
"7X7X7X7X7X7X7X7X7X7X7X7X7X2X=X@X=X=X=X=X@X|.!.K.7X7X7X7X7X7X7X7X7X7X7X7X7X7X7X7X7X7X7X7X7X7X7X7X7X7X",
"7X7X7X7X7X7X7X7X7X7X7X7X2X=X=X=X@X=X@X@X}.{.].E.7X7X7X7X7X7X7X7X7X7X7X7X7X7X7X7X7X7X7X7X7X7X7X7X7X7X",
"7X7X7X7X7X7X7X7X7X7X7X6X=X=X=X@X@X}.OX}.}.{.).!.7X7X7X7X7X7X7X7X7X7X7X7X7X7X7X7X7X7X7X7X7X7X7X7X7X7X",
"7X7X7X7X7X7X7X7X7X7X7X:X=X=X@X@X}.}.}.}.{.].].).F.7X7X7X7X7X7X7X7X7X7X7X7X7X7X7X7X7X7X7X7X7X7X7X7X7X",
"7X7X7X7X7X7X7X7X7X7X3X=X=X=X@X}.}.}.}.OX}.}.@X}.{.{.).)._.XX*X7X7X7X7X7X7X7X7X7X7X7X7X7X7X7X7X7X7X7X",
"7X7X7X7X7X7X7X7X7X7X;X;X=X}.}.}.@X}.@X@XOX}.}.}.}.{.{.].].{._._.XX*X7X7X7X7X7X7X7X7X7X7X7X7X7X7X7X7X",
"7X7X7X7X7X7X7X7X7X<X:X=X X}.}.@X}.}.}.}.}.}.[.|.{.}.}.|.].].].]._.(.XX*X7X7X7X7X7X7X7X7X7X7X7X7X7X7X",
"7X7X7X7X7X7X7X7X7X3X=X=X=X}.}.}.}.}.}.}.}.}.}.}.}.[.X = F.|.{.].].].).(._.7X7X7X7X7X7X7X7X7X7X7X7X7X",
"7X7X7X7X7X7X7X7X7X:X:X X}.@X}.}.}.}.@X}.}.@X@X}.@X: 4X4X8 }.}.|.].].).)._._.*X7X7X7X7X7X7X7X7X7X7X7X",
"7X7X7X7X7X7X7X7X#X;X=X=X@X@X@X@X$X@X@X}.=X=X=X@Xo w 4X4X* =X X}.}.|.[.(.].)._..X7X7X7X7X7X7X7X7X7X7X",
"7X7X7X7X7X7X7X#X;X;X=X=X=X@X@X@X@X@X=X=X=X=X=X=X+   * @ r.=X=X}.}.g.4X5X[.).)._.*X7X7X7X7X7X7X7X7X7X",
"7X7X7X7X7X7X#X=X;X;X;X=X=X@X$X$X=X=X=X;X:X;X-X7 %   . O -X=X=X=X+X6 4X4X> ).).^._.7X7X7X7X7X7X7X7X7X",
"7X7X7X7X7X7X$X;X;X;X;X=X=X@X=XT.Y.T.|.=X;X;X;X+ 5 3 1 L :X:X=X=Xq # 4X4X9 !.!.!.^.XX7X7X7X7X7X7X7X7X",
"7X7X7X7X7X@X;X:X,X;X;X;X=X$X{.V.R.V.V.B.].:X3X$ e.q.+ 1X:X:X=X=X& .   . +X).(.~.Q./.*X7X7X7X7X7X7X7X",
"7X7X7X7X7X;X1X1X;X;X$X$X$X$X$X$X|.T.Y.T.;X,X:X3X& f.:X1X;X;X:X3X% @ . + ].].!.!.!.W.XX7X7X7X7X7X7X7X",
"7X7X7X7X@X;X1X1X,X;X;X$X$X$X$X$X$X$X;X;X;X,X;X1X;X;X,X;X:X:X=X7 0.5 3 '.].].!.!.Q.K./.7X7X7X7X7X7X7X",
"7X7X7X7X;X1X1X1X,X;X$X$X$X$X$X$X$X$X$X@X$X;X;X@Xh.J ^.;X=X=X X'.q.w.0 ].].!.!.~.Q.Q.^.*X7X7X7X7X7X7X",
"7X7X7X7X1X1X1X,X;X;X$X$X$X@X@X$X@X$X$X$X$X$X=X< a a e ; < Q.}.}.}.@X].).].!.~.E.E.K.K.XXH..X7X7X7X7X",
"7X7X7XoX1X1X1X,X;X$X$X$X$X@X@XOXOX@XOX@X@X@X=XY [ [ _ U s - J |.{.].].T.D.~.Q.K.J.J.K.XXA.G.G.7X7X7X",
"7X7X7X>X1X1X1X$X$X$X$XOXOXOXOXOXOXOXOXOXOXOXOX_ [ 8.[ ' U s y _.).).).d.d.d.v.T.J.J.J./.A.A.A.L.7X7X",
"7X7X7XoX1X1X,X,X$X$XOXOXOXOXOXOXOX{.OX{.{.{.{.OX] 7.[ ' I t ).!.!.!.!.~.d.d.d.C.S.S.G./.A.A.Z.A.I.7X",
"7X7X7X7X;X:X;X;X$XOXOXOXOX_.{.{._.{._.{._.{._.{.{.I.G K _.).Q.E.E.J.J.E.E.S.C.S.G.A.G.I.A.A.Z.Z.L.7X",
"7X7X7X7X;X:X;X;X@XOXOX{.{.{.{._._.)._.).).).).(.^.).(.).!.Q.E.K.J.b.O.| %.%.o.o.| } X.b.M.b.n.m..X7X",
"7X7X7X7X=X:X;X@X@X{.{._._.)._.).).).^.).^.^.^.Q.!.Q.Q.K.E.Q.M.o.%.*.*.=.=.=.;.;.=.-.-...! x.k.`.7X7X",
"7X7X7X7X&X=X=X@XOX{._.)./.).^.^.^.^.^.Q.^.Q.Q.K.J.J.J.S.v.&.%.-.*.=.=.;.;.;.;.>.:.:.:.;.| { 7X7X7X7X",
"7X7X7X7X7X=X=X}.}.).).^.^.^.Q.^.Q.Q.Q.K.K.K.K.J.S.A.A.&.<.<.=.=.=.;.;.;.:.:.:.>.>.>.>.:.o.) Z 7X7X7X",
"7X7X7X7X7X&X@X}.].).).Q.K.K.K.K.K.K.K.K.J.G.S.N.N.C.&.2.;.;.;.=.=.;.;.;.;.=.=.=.;.;.=.*.} W Z 7X7X7X",
"7X7X7X7X7X7X-X}.].].!.Q.K.K.H.K.G.G.G.G.G.A.A.M.M.2.2.2.;.=.=.=.;.;.=.&.*.*.*.o.o.o.^ ^ ! A M 7X7X7X",
"7X7X7X7X7X7X7X}.}.).Q.K.J.G.G.G.G.G.N.N.N.N.M.v. .2.3.2.;.;.;.*.*.*.o.' / / / ^ ^ ( R R A m z 7X7X7X",
"7X7X7X7X7X7X7Xp.}.].!.W.J.S.N.U.N.N.N.m.n.n.c.l.1.1.2.=.=.*.*.` / | / ^ ^ E R E R T A Z z l n 7X7X7X",
"7X7X7X7X7X7X7Xp.p.}.].~.J.A.N.N.m.n.n.n.n.z.x.4.-.-.-.o.` ` / ^ ^ ( E E R T T A V B m l j z J 7X7X7X",
"7X7X7X7X7X7X7Xy.p.u.i.{.E.G.A.M.n.n.n.z.z.l.j.+.O.o.} ^ ^ ! ! E E R T T A V B m z l g f g n 7X7X7X7X",
"7X7X7X7X7X7X7X3.i.u.y.#.v.K.G.N.M.n.z.z.z.j.j.:.O.@.^ ! R R R T A V B B z z l k f f f g M 7X7X7X7X7X",
"7X7X7X7X7X7X7X1.y.y.y.1.@...Q G.N.m.n.c.c.z.x.l.+.@.! R T A V V B B z l k a f p i d b Z 7X7X7X7X7X7X",
"7X7X7X7X7X7X7X6.1.y.y.,. .| E T c z X.H.U.m.m.m.9.+.Q A V B x z z k k p p i i u g N G 7X7X7X7X7X7X7X",
"7X7X7X7X7X7X7X7X-.1.y.,.&.^ ^ ~ v c z f y , , 7X7X9.+.) Z B z k a f i i i h h N C P 7X7X7X7X7X7X7X7X",
"7X7X7X7X7X7X7X7X$.1.1.,.&.^ ^ E A c z j i r , 7X7X7Xs.5.) S m m l g g g N M F P 7X7X7X7X7X7X7X7X7X7X",
"7X7X7X7X7X7X7X7X7X-.,.,.#...! ! A v z j i t r 7X7X7X7X7Xa.5.X.G H F F ) X.7X7X7X7X7X7X7X7X7X7X7X7X7X",
"7X7X7X7X7X7X7X7X7X7X@.#.#...} W ~ v x j d t r 7X7X7X7X7X7X7X7X7X7X7X7X7X7X7X7X7X7X7X7X7X7X7X7X7X7X7X",
"7X7X7X7X7X7X7X7X7X7X7X.. ...^ W ~ A x j d r 7X7X7X7X7X7X7X7X7X7X7X7X7X7X7X7X7X7X7X7X7X7X7X7X7X7X7X7X",
"7X7X7X7X7X7X7X7X7X7X7X7X{ { { ~ A v z f d , 7X7X7X7X7X7X7X7X7X7X7X7X7X7X7X7X7X7X7X7X7X7X7X7X7X7X7X7X",
"7X7X7X7X7X7X7X7X7X7X7X7X7X{ ~ T c c l d t 7X7X7X7X7X7X7X7X7X7X7X7X7X7X7X7X7X7X7X7X7X7X7X7X7X7X7X7X7X",
"7X7X7X7X7X7X7X7X7X7X7X7X7X7XK z z k p u 7X7X7X7X7X7X7X7X7X7X7X7X7X7X7X7X7X7X7X7X7X7X7X7X7X7X7X7X7X7X",
"7X7X7X7X7X7X7X7X7X7X7X7X7X7X7X7X7X7X7X7X7X7X7X7X7X7X7X7X7X7X7X7X7X7X7X7X7X7X7X7X7X7X7X7X7X7X7X7X7X7X",
"7X7X7X7X7X7X7X7X7X7X7X7X7X7X7X7X7X7X7X7X7X7X7X7X7X7X7X7X7X7X7X7X7X7X7X7X7X7X7X7X7X7X7X7X7X7X7X7X7X7X",
"7X7X7X7X7X7X7X7X7X7X7X7X7X7X7X7X7X7X7X7X7X7X7X7X7X7X7X7X7X7X7X7X7X7X7X7X7X7X7X7X7X7X7X7X7X7X7X7X7X7X",
"7X7X7X7X7X7X7X7X7X7X7X7X7X7X7X7X7X7X7X7X7X7X7X7X7X7X7X7X7X7X7X7X7X7X7X7X7X7X7X7X7X7X7X7X7X7X7X7X7X7X"
};
