/* XPM */
static char *result[] = {
/* columns rows colors chars-per-pixel */
"50 50 210 2 ",
"   c #5E1434",
".  c #571836",
"X  c #5A1D37",
"o  c #6E0F38",
"O  c #671939",
"+  c #631D40",
"@  c #761B45",
"#  c #7C1E4A",
"$  c #6F2347",
"%  c #73234A",
"&  c #752A4A",
"*  c #712644",
"=  c #7F2A52",
"-  c #8B1E4D",
";  c #822D4F",
":  c #91214F",
">  c #822551",
",  c #8C2452",
"<  c #812B52",
"1  c #8D2E5B",
"2  c #932D5B",
"3  c #932054",
"4  c #8B335A",
"5  c #92345D",
"6  c #95355D",
"7  c #8D3661",
"8  c #9A3663",
"9  c #943C65",
"0  c #9A3966",
"q  c #A33364",
"w  c #A33C6A",
"e  c #AA3D6C",
"r  c #A33867",
"t  c #AB3F70",
"y  c #9C486E",
"u  c #9D4370",
"i  c #9E5B7A",
"p  c #A5456F",
"a  c #AC4574",
"s  c #A34C74",
"d  c #AE4B7A",
"f  c #AC4977",
"g  c #B34374",
"h  c #BC467A",
"j  c #BA4C7D",
"k  c #B14A77",
"l  c #AD527C",
"z  c #A55073",
"x  c #B7517F",
"c  c #C2497D",
"v  c #AF5781",
"b  c #B45582",
"n  c #BD5486",
"m  c #B55A84",
"M  c #BA5B86",
"N  c #BC5D8A",
"B  c #A76686",
"V  c #B56389",
"C  c #BC628C",
"Z  c #B6668C",
"A  c #BA738F",
"S  c #BE6B95",
"D  c #BC7496",
"F  c #BE7399",
"G  c #BC7B9A",
"H  c #C64E85",
"J  c #C45284",
"K  c #C45788",
"L  c #CA5589",
"P  c #C45B8A",
"I  c #CA5C8D",
"U  c #D5558E",
"Y  c #D1598F",
"T  c #CC5F90",
"R  c #D55D93",
"E  c #DB5D93",
"W  c #C2638D",
"Q  c #C9628C",
"!  c #C46492",
"~  c #CC6493",
"^  c #C46C95",
"/  c #CA6A95",
"(  c #CE6699",
")  c #CE6E9B",
"_  c #C46D99",
"`  c #D36495",
"'  c #DD6499",
"]  c #D46C9A",
"[  c #DB6B9D",
"{  c #D96597",
"}  c #C6739A",
"|  c #CB739C",
" . c #C57B9B",
".. c #CE7A9E",
"X. c #D3739D",
"o. c #DA729E",
"O. c #D2789E",
"+. c #E4649C",
"@. c #E9669F",
"#. c #E16A9E",
"$. c #DD6EA1",
"%. c #D56FA2",
"&. c #CD74A2",
"*. c #CE7BA4",
"=. c #D575A2",
"-. c #DC73A2",
";. c #D47AA3",
":. c #DB79A6",
">. c #D57CA9",
",. c #DD7CAA",
"<. c #DC74A9",
"1. c #E46DA1",
"2. c #EB6CA3",
"3. c #F06DA6",
"4. c #F26EAA",
"5. c #E274A5",
"6. c #EC72A6",
"7. c #E279A6",
"8. c #E576A8",
"9. c #EC75AA",
"0. c #E47CAA",
"q. c #EC7BAD",
"w. c #F375AC",
"e. c #F37AAE",
"r. c #F675AB",
"t. c #EC7DB2",
"y. c #E47EB0",
"u. c #F57DB2",
"i. c #F97EB4",
"p. c #FB7EB8",
"a. c #F576B0",
"s. c #D2839E",
"d. c #CA80A5",
"f. c #CB8BA7",
"g. c #CE85AB",
"h. c #CC8AAC",
"j. c #D384A7",
"k. c #D482AB",
"l. c #DC82AD",
"z. c #DB89AD",
"x. c #DA91AF",
"c. c #DD85B3",
"v. c #DB8BB4",
"b. c #DD8DBB",
"n. c #D48CB1",
"m. c #DC92B5",
"M. c #DF92BB",
"N. c #D999BC",
"B. c #D696B5",
"V. c #E482AE",
"C. c #EB81AF",
"Z. c #E189AD",
"A. c #E485B2",
"S. c #ED84B4",
"D. c #E48AB5",
"F. c #EC89B5",
"G. c #E58CBA",
"H. c #EC8CBB",
"J. c #F482B5",
"K. c #FA82B6",
"L. c #F389B7",
"P. c #F585B9",
"I. c #FC85BA",
"U. c #F48BBB",
"Y. c #FC8ABD",
"T. c #E690B7",
"R. c #E492BD",
"E. c #EB93BD",
"W. c #E39CBD",
"Q. c #E890B6",
"!. c #F391BD",
"~. c #F990BD",
"^. c #EC8EC0",
"/. c #F48EC2",
"(. c #FD8DC1",
"). c #EC93C0",
"_. c #E39AC4",
"`. c #EE9AC4",
"'. c #ED9DCA",
"]. c #F594C3",
"[. c #FD93C4",
"{. c #F49BC5",
"}. c #FB99C6",
"|. c #F597CB",
" X c #FE95C9",
".X c #F49DCA",
"XX c #FC9ACB",
"oX c #F59DD1",
"OX c #FB9FD0",
"+X c #EAA4C9",
"@X c #F4A3CE",
"#X c #FBA1CE",
"$X c #ECA2D0",
"%X c #EEAAD4",
"&X c #F4A5D2",
"*X c #FBA3D1",
"=X c #F4ABD4",
"-X c #FAAAD5",
";X c #F4ADDA",
":X c #FBABDB",
">X c #F4B3D9",
",X c #FDB3DC",
"<X c #F2B4DB",
"1X c #FCBCE5",
"2X c #FEBEE9",
"3X c #F3BAE0",
"4X c #F8C4E8",
"5X c #FEC7F0",
"6X c #FFCBF1",
"7X c None",
/* pixels */
"7X7X7X7X7X7X7X7X7X7X7X7X7X7X7X7X7X7X7X7X7Xb.g.c.G.A.g.m._.7X7X7X7X7X7X7X7X7X7X7X7X7X7X7X7X7X7X7X7X7X",
"7X7X7X7X7X7X7X7X7X7X7X7X7X7X7X7X7Xj.!.d w 1Xg.P >.;X2Xc.! ,.w A.R.7X7X7X7X7X7X7X7X7X7X7X7X7X7X7X7X7X",
"7X7X7X7X7X7X7X7X7X7X7X7X7X7X7XZ.XX_.<.=X5Xb.S n | %X2X.X( b ,.|.H.S.c.7X7X7X7X7X7X7X7X7X7X7X7X7X7X7X",
"7X7X7X7X7X7X7X7X7X7X7X7X7Xz.n.N.R.,.-X$X= ( P.8.9.a.6.p.H -.~ #.t.K.$.^.k.7X7X7X7X7X7X7X7X7X7X7X7X7X",
"7X7X7X7X7X7X7X7X7X7X7XD @ 2Xv.A.M.D.` $.(. X X[. X X X X/.I.(.u.w.1.t.t.J w h.7X7X7X7X7X7X7X7X7X7X7X",
"7X7X7X7X7X7X7X7X7X7XE.'.>X@Xl.A.Y Y.(.[.[.[. XXX X X X[.(. X(.p.p.p.u.K ( L 5.;.7X7X7X7X7X7X7X7X7X7X",
"7X7X7X7X7X7X7X7X7Xv 1X_._.V.J [.[.XX X[. XoX|..X'..X@X*X|.|./.p.p.(.P.I.K.w 1.P 8 7X7X7X7X7X7X7X7X7X",
"7X7X7X7X7X7X7XG # :XoXc.a L.XXXXXXOX|.v.% >.b.v.b.A.c.v.k.m = y./.S. X[.I./.$.e J 0 7X7X7X7X7X7X7X7X",
"7X7X7X7X7X7X7XC ^.G.oXg [.~.XXXX$X& G.G.H.XX^.|.].|.]. XU.,.,.=.F b [.XX(.P.I.8.g [ F.7X7X7X7X7X7X7X",
"7X7X7X7X7X7Xc.oX|.0 I [. X]..Xu `.`.[.|./.OXoXoX$X*XoXXX/.Y.I.F.y.=.Z G.[. Xp.p.L.8.g F.7X7X7X7X7X7X",
"7X7X7X7X7XE.^.:Xa ! (. X}..XF {.XXXXXXXX).2XoX*X|.XXXX|.oX(.(.P./.t.-.! N  Xu.a.K.j [ : ..7X7X7X7X7X",
"7X7X7X7X*.N /.] n [.[.].E.{.[.XXXX X*X&Xb.XXXXXXXXXXXXXX X[.<.[.p.(.t.,.,._ q.p.w.9.L 0.k B.7X7X7X7X",
"7X7X7X7X/ 0.*XP (.U.[.E.`.}.XX XOX].&X.X XXXXXXXXXXX X X[.(. Xv (.P.(.u.-.-.$.t.a.4.9.5.g o.7X7X7X7X",
"7X7X7Xz.:.XXy.!.[.[.{.E.]. X XXX].c.'.OXXXXXXXXXXXXXXX X[.[. Xt.&./.(.I.t.$.-.J.w.4.4.q.[ , s.7X7X7X",
"7X7X7X& L.A.` [.XX{.^ {. XXX X[.v.1X XXXXXXX|. X X X X X X X X/.).U. X(.(.8.=.[ w.r.a.2.5.0.O 7X7X7X",
"7X7XE.:.U.]  X(.}.l `.-XE.#X}.!.g..XXX X X X X X X X X X X X X(./.%.Y.Y.p.H.^./ q.w.r.a.9.8.W f.7X7X",
"7X7XD.I.o.` [.[.E.`.R.*X.X@X}.L.M..XXX[. X X X(. X X X X(. X(.(.I.0 t.(.a.c.S.1 ~ e.w.r.e.I 5.Q 7X7X",
"7XZ !.t.~ (.[.!.* n.&X X.X@X].D.<XXXXX X X X X[. X X X[. X(.[./.I._ (./.8.>.e.5.M 5.9.+.+.#.9.7.7X7X",
"7XE.G.` P Y.[.~.l._.XXXX@X].].V.>XXX XXX X X X X X X[.[.[.[.(.I.w.} I.J.<.>.q.9.I ^ 6.2.3.@.< [ -.7X",
"7X{.( 8 ` Y.[.D.;.*XXXXX.X@X].V.@X[. X X X X[.[.(.(.K.[.XX(.I.a.e.V L.K.5.,.e.e.e.C P.1.r.K.w = | 7X",
"7X> R m P.Y.~.4 d.XXXXXX*.#X{.A.d.{. X X X[. X X[.[.Y.J.(.Y.K.i.i.% K.K.o.^ u.i.2.; ( 5.3.@.u.  l 7X",
"A a 8.G.Y.Y.Y.V v.[.XX].5 XXXXF.>.]. XXXXX[.[.[.(.Y.Y.I.K.K.i.I.H.P.e.r.o./ 9.2.2.[ M 8.+.3.9.C 6 7X",
"^ P.Y.T Y.~.].l.>X[. X].D.].}.!.V.D. X XXX[.[.(.Y.I.K.I.K.K.I.K., q.i.e.C./ 0.6.3.q.W 0.2.4.i.D.:.+X",
"V U.t.n I.I.].l.,XY.[.H.}.~.}.~.A.:.G.[. X X(.Y.I.K.K.K.I.u.P.L.L.e.K.K.e.] U.2.2.5.C {.9.2.2.I.~.A.",
"W o.-.c I.K.H.j.@XY.U.9 ~. X X}.U.V.&.=.].~.Y.Y.I.I.I.Y.Y.J.S.F.I.I.I.I.K.o./ 6.3.q.s @X9.2.2.X.;.V.",
"O.w r h Y.P.V.:.#XI.!.}.[.}.[.}.[.F.0.k.< !.J.K.I.Y.J.U.C.a L.I.I.Y.Y.I.i.8.( o.9.e.s =X#.@.@.# , ,.",
"^ , , H Y.~.D.:.#X0.; L.Y.~.[.[.[.[.U.0.=.O.5 b !.L.o.* ;.J.J.J.K.I.K.K.i.8.Q ] 3.9.m @X' 2.E   O | ",
"Z V.P [ Y.~.}.l.C.O.~.I.Y.~.[.[.[. X[.Y.K.q.8.X.;.:.C.C.J.Y.K.J.I.K.u.i.K.6.{ ` 7.o.~ ,.#.@.+.s X.z.",
"f.H.P.P.Y.[.U.d.C.!.I.(.Y.[.[.[.[.Y.[.~.(.I.P.K.K.K.K.I.K.K.K.J.i.K.u.u.i.6.#.{ ~ Q P ] +.+.#.U.Y.N.",
"7X#XC.:XJ.[.Y.& S.Y.(.Y.Y.Y.Y.Y.~.Y.[.Y.(.(.K.K.K.i.K.K.K.K.K.J.i.K.i.u.e.6.9.#.#.{ x 7.2.+.' XX8.7X",
"7Xl.t.L.5.Y.Y.;.!.I.Y.J.Y.Y.Y.Y.Y.Y.[.(.L.U.H.y.A.S.S.L.J.J.K.J.K.K.i.e.e.w.e.#.#.] @X[ 2.E y.:.0.7X",
"7X/ 5 O.` Y.K.[.F.Y.[.Y.Y.Y.Y.Y.I.Y.G.@X-XU.P.S.J.K.J.J.L.J.[.P.K.K.K.K.u.e.e.6.#.Q ;.9.1.#.c.> Q 7X",
"7Xm.p 0 7.K.I.u.b U.P.Y.Y.Y.I.L.A.-XL.Y.y X.Y.I.K.K.K.J.6 W J.K.I.e.K.I.i.u.u.r.X.-X6.#.@.6.d 8  .7X",
"7X7XD.w ] I J.J.J.6 J.Y.I.U.0.-XE.K.I.Y.l O.~.Y.Y.Y.I.L.X.^ K.C.e.e.#.L.u.r.w.:.R.-.@.#.U ] 1 A.7X7X",
"7X7XO.o.o P q.P.(.P.] (.U.S.;.D.Y.Y.Y.P.:.:.].P.Y.Y.I.!.7.^ C.K.e.q.C.S.e.e.7.-X7.#.6.+.' @ R.| 7X7X",
"7X7X7X@X/ a J u.K.t.(.[.[.V.} Y.Y.[.Y.~.l.o.{.Y.Y.I.K.P.V.O.C.K.w.e.0.S.8.7.#X5.w.3.#.R [ ;.A.7X7X7X",
"7X7X7X .] 5 I J.Y.(.I.P.Y.{.| ].(.(.Y.U.| =..XI.I.P.I.L.7.^ C.r.w.e.C.5.*XZ.#.#.2.@.' E v 2X} 7X7X7X",
"7X7X7X7XE.C @ g q.9.e.Y.Y.U.^ L.Y.(.(.Y.N &.H.K.K.I.I.q.X.^ C.r.e.C.C./ V.9.6.9.@.' Y ~ ;X<.7X7X7X7X",
"7X7X7X7XA :.X.0.a 9.w.e.w.J.y #XY.(.Y.U.m c.[.I.I.K.i.q.k @Xe.C.u.C.` / 0.r.2.#.2.R $.&.F.S 7X7X7X7X",
"7X7X7X7X7XO.] 2 S.h Y.u.e.u.M X.!.[.Y.Y.Y.K.I.I.P.C.K.J.e.e.e.J.q.C.k } o.6.#.1.U 0.) -XX.7X7X7X7X7X",
"7X7X7X7X7X7XF.` 6 #Xa J.K.u.F./ | ; U.].P.I.I.(.K.K.K.K.r.6.C.e.] m / l.6.2.1.c 5.( 1XS.7X7X7X7X7X7X",
"7X7X7X7X7X7X7X-X] -.{.j e.u.Y.C.0.O...:.V $ X . O + O X O 6 Q / :...).@.9.' h [ M.*.,.7X7X7X7X7X7X7X",
"7X7X7X7X7X7X7Xf.-Xe P 5.j q.r.e.K. XY.0.0.q.8.8.0.7.7.7.7.o.V.=XE.5.q.9.` J <.5X! l.7X7X7X7X7X7X7X7X",
"7X7X7X7X7X7X7X7X7X&X2 P Q :.j 9.J.Y.K.P.L.J.F.P.L.F.C.V.V.C.q.9.e.2.6.q q.>X).,.E.7X7X7X7X7X7X7X7X7X",
"7X7X7X7X7X7X7X7X7X7XQ.P J g ] [ L I.K.Y.K.K.i.i.J.K.e.i.e.K.9.e.1.3 o.D.4X0.-...7X7X7X7X7X7X7X7X7X7X",
"7X7X7X7X7X7X7X7X7X7X7XB -Xe I I [ J.[ [ i.i.I.i.i.I.e.6.e.] q e ,.A.1Xg.E.T.B 7X7X7X7X7X7X7X7X7X7X7X",
"7X7X7X7X7X7X7X7X7X7X7X7X7XV.E.[ L o.n *X&XJ.5.1.{ { [ #.8.[ :.*.b.4X>.S...7X7X7X7X7X7X7X7X7X7X7X7X7X",
"7X7X7X7X7X7X7X7X7X7X7X7X7X7X7X .C.L 1.H H #.` u.8.J.!.E.>.oX&.%X3X0.F 7X7X7X7X7X7X7X7X7X7X7X7X7X7X7X",
"7X7X7X7X7X7X7X7X7X7X7X7X7X7X7X7X7X7XH.!.;X9.1.q.9.t./.A.[.) @Xl.7X7X7X7X7X7X7X7X7X7X7X7X7X7X7X7X7X7X",
"7X7X7X7X7X7X7X7X7X7X7X7X7X7X7X7X7X7X7X7X7X7XD k.l.k. .i 7X7X7X7X7X7X7X7X7X7X7X7X7X7X7X7X7X7X7X7X7X7X"
};
