/* XPM */
static char *result[] = {
/* columns rows colors chars-per-pixel */
"50 50 245 2 ",
"   c #580509",
".  c #500A06",
"X  c #650C11",
"o  c #71141A",
"O  c #670C11",
"+  c #7C1B26",
"@  c #631A20",
"#  c #782229",
"$  c #7B3933",
"%  c #7F2531",
"&  c #831A2A",
"*  c #843429",
"=  c #882A39",
"-  c #853639",
";  c #903231",
":  c #9A473C",
">  c #965C36",
",  c #8F532B",
"<  c #A6413C",
"1  c #AE7A3E",
"2  c #8D3442",
"3  c #973C48",
"4  c #993E50",
"5  c #A73741",
"6  c #964549",
"7  c #92585E",
"8  c #924D4D",
"9  c #A44A4E",
"0  c #A6544C",
"q  c #A64855",
"w  c #B24956",
"e  c #A75856",
"r  c #B7555A",
"t  c #B24B4B",
"y  c #96634A",
"u  c #8E6557",
"i  c #B66946",
"p  c #AD665E",
"a  c #B5685C",
"s  c #AE7351",
"d  c #BB4A61",
"f  c #A75362",
"g  c #B65969",
"h  c #BF5E71",
"j  c #A86565",
"k  c #B56566",
"l  c #BB7565",
"z  c #BC6576",
"x  c #A67979",
"c  c #BB7875",
"v  c #A8746D",
"b  c #9A7073",
"n  c #C5576A",
"m  c #C45F74",
"M  c #C36A6B",
"N  c #C8786C",
"B  c #C46474",
"V  c #C36976",
"C  c #C46678",
"Z  c #C76A79",
"A  c #D26B7A",
"S  c #C57973",
"D  c #C97B74",
"F  c #CB7D7C",
"G  c #C67678",
"H  c #D27879",
"J  c #BC864D",
"K  c #BA8754",
"L  c #B28B72",
"P  c #B7A17B",
"I  c #C79558",
"U  c #C78B4D",
"Y  c #C68867",
"T  c #C79665",
"R  c #C9827B",
"E  c #D4897D",
"W  c #C79779",
"Q  c #D59674",
"!  c #CDA569",
"~  c #D5A469",
"^  c #D5A877",
"/  c #D6B173",
"(  c #CAA774",
")  c #E1B379",
"_  c #CBA658",
"`  c #D76F85",
"'  c #C97286",
"]  c #C87885",
"[  c #D67B88",
"{  c #CC7792",
"}  c #D87C92",
"|  c #E17F88",
" . c #B89A88",
".. c #B19790",
"X. c #BCA293",
"o. c #BAACAA",
"O. c #CD8482",
"+. c #C98A87",
"@. c #D48A84",
"#. c #D78889",
"$. c #C59E8A",
"%. c #D89789",
"&. c #CE8291",
"*. c #DC8C91",
"=. c #DD839B",
"-. c #DB8D9E",
";. c #D68494",
":. c #DB9593",
">. c #D99798",
",. c #E19586",
"<. c #E48599",
"1. c #E48D9B",
"2. c #E48496",
"3. c #E3939B",
"4. c #E59796",
"5. c #E28D8D",
"6. c #CAA78A",
"7. c #D7A688",
"8. c #DAB889",
"9. c #C5A995",
"0. c #DBA897",
"q. c #CEB997",
"w. c #DBB59B",
"e. c #E2AB89",
"r. c #E5B386",
"t. c #E4AA93",
"y. c #E6A499",
"u. c #E3B292",
"i. c #E8B69A",
"p. c #DB8BA2",
"a. c #DD9BAB",
"s. c #DE96A4",
"d. c #E38CA2",
"f. c #E889A5",
"g. c #E493A4",
"h. c #EB95A3",
"j. c #E39BA5",
"k. c #EB96AB",
"l. c #E49BAB",
"z. c #EB9BAC",
"x. c #E898A7",
"c. c #ED9DB4",
"v. c #E99AB3",
"b. c #F499B5",
"n. c #F295A7",
"m. c #C4ADA5",
"M. c #DAA6A8",
"N. c #CABBA7",
"B. c #CDAFB1",
"V. c #DAA4B2",
"C. c #C7BAB7",
"Z. c #D4BAB2",
"A. c #DDB1A9",
"S. c #E4A2A5",
"D. c #ECA4A3",
"F. c #E4A5AB",
"G. c #EAABAB",
"H. c #E9A8AA",
"J. c #F2A5A9",
"K. c #EEBCAD",
"L. c #E9B4A2",
"P. c #F2BAA8",
"I. c #EBA3B3",
"U. c #EAAAB5",
"Y. c #EAADBA",
"T. c #EAA5B7",
"R. c #F2A5BA",
"E. c #F2AABA",
"W. c #F2A6B5",
"Q. c #ECB3B4",
"!. c #ECBCB5",
"~. c #ECB2BB",
"^. c #E7BAB9",
"/. c #F3BAB5",
"(. c #D9C098",
"). c #DFC08E",
"_. c #E5C697",
"`. c #EFC693",
"'. c #CBC2BE",
"]. c #D9C6B5",
"[. c #D8C1AF",
"{. c #EBCDA2",
"}. c #E7C9A9",
"|. c #F6CCA5",
" X c #EAD1A5",
".X c #E2CCBB",
"XX c #E9CAB6",
"oX c #F3C4B3",
"OX c #F7C8B7",
"+X c #E5D4BE",
"@X c #ECD2BD",
"#X c #EAD8B6",
"$X c #F3D8B4",
"%X c #F5DAAD",
"&X c #F6E6B8",
"*X c #D0BFC0",
"=X c #E6BDC8",
"-X c #F5BDC4",
";X c #F4BAC9",
":X c #F0AEC0",
">X c #CDC4C5",
",X c #D6CCCD",
"<X c #D9CBC6",
"1X c #D7D0D0",
"2X c #DAD3D4",
"3X c #DED8D7",
"4X c #DBD1D0",
"5X c #ECC9C5",
"6X c #F4C7C7",
"7X c #E5D6C1",
"8X c #EBDBCC",
"9X c #E8D8C6",
"0X c #F7DAC4",
"qX c #E4DBDA",
"wX c #E9DBD5",
"eX c #F5DAD5",
"rX c #FAC7D0",
"tX c #DFE2C7",
"yX c #EDE2CA",
"uX c #EBE5C5",
"iX c #ECE3DC",
"pX c #E4E1DC",
"aX c #F5E6D5",
"sX c #F5E8D7",
"dX c #F3E5DA",
"fX c #F9E9D9",
"gX c #F4F3DA",
"hX c #F9EAC4",
"jX c #E8DFE0",
"kX c #EBE5E4",
"lX c #EDEAE9",
"zX c #E8E5E7",
"xX c #F3EAE4",
"cX c #F3ECEC",
"vX c #F6E9E6",
"bX c #F4F2ED",
"nX c #F8F4EB",
"mX c #EEEAF3",
"MX c #F5EFF0",
"NX c #F4F3F2",
"BX c #FCFAF4",
"VX c #FCFBFC",
"CX c #FCF4F9",
"ZX c #EDF5F6",
"AX c None",
/* pixels */
"AXAXAXAXAXAXAXAXAXAXAXAXAXAXAXAXAXAXAXAXAXAXAXAXAXAXAXAXAXAXAXAXAXAXAXAXAXAXAXAXAXAXAXAXAXAXAXAXAXAX",
"AXAXAXAXAXAXAXAXAXAXAXAXAXAXAXAXAXAXAXAXAXAXAXAXAXAXAXAXAXAXAXAXAXAXAXAXAXAXAXAXAXAXAXAXAXAXAXAXAXAX",
"AXAXAXAXAXAXAXAXAXAXAXAXAXAXAXAXAXAXAXAXAXAXAXAXAXAXAXAXAXAXAXAXAXAXAXAXAXAXAXAXAXAXAXAXAXAXAXAXAXAX",
"AXAXAXAXAXAXAXAXAXAXAXAXAXAXAXAXAXAXAXAXAXAXAXAXAXAXAXAXAXAXAXAXAXAXAXAXAXAXAXAXAXAXAXAXAXAXAXAXAXAX",
"AXAXAXAXAXAXAXAXAXAXAXAXAXAXAXAXAXAXAXAXAXAXAXAX%Xi.AXAXAXAXAXAXAXAXAXAXAXAXAXAXAXAXAXAXAXAXAXAXAXAX",
"AXAXAXAXAXAXAXAXAXAXAXAXAXAXAXAXAXAXAXAXAXAXAXy 6X6X+.AXAXAXAXAXAXAXAXAXAXAXAXAXAXAXAXAXAXAXAXAXAXAX",
"AXAXAXAXAXAXAXAXAXAXAXAXAXAXAXAXAXAXhXAX7.8.D w.&X8.5X8.8.7.AX{.AXAXAXAXAXAXAXAXAXAXAXAXAXAXAXAXAXAX",
"AXAXAXAXAXAXAXAXAXAXAXAXAXAXAXW }.oX^.6Xi.eXfXrXoX}.F.eXA.!.^.=X9Xi.7.AXAXAXAXAXAXAXAXAXAXAXAXAXAXAX",
"AXAXAXAXAXAXAXAXAXAXAXAXAXAX#XM.l G._.$XL oX}.XXr.U K.0.M.T !.8.H.s :X#XAXAXAXAXAXAXAXAXAXAXAXAXAXAX",
"AXAXAXAXAXAXAXAXAXAXAXAXAXAXM.6X9X3.~.|.Q :.e.0X|.{.#Xk e.I }.-.j.@XOX-XAXAXAXAXAXAXAXAXAXAXAXAXAXAX",
"AXAXAXAXAXAXAXAXAXAXAXAXAX_.rX+.eX] -Xq | &XC.vX_.~ uX].%X| 5 F.G XXL.y.`.AXAXAXAXAXAXAXAXAXAXAXAXAX",
"AXAXAXAXAXAXAXAXAXAXAXAX}.=XoX0X+.+.oXN.VXVXBXdXvX9XsXnXCXMXyXK.k :.7.K.;XQ AXAXAXAXAXAXAXAXAXAXAXAX",
"AXAXAXAXAXAXAXAXAXAXAXq.J.#.|.u.r (.VXVX+X,Xx v 7 7 x ..2X].nXbXq.< u.y.%.k.6XAXAXAXAXAXAXAXAXAXAXAX",
"AXAXAXAXAXAXAXAXAXAXAXOX<.^.y.c.9.BXgXX.7 ; o 6 q ; d w n j B.].bXsXD.W 4.F.H.AXAXAXAXAXAXAXAXAXAXAX",
"AXAXAXAXAXAXAXAXAXAXAX^.5X#X%.P VXtXb = o - & Z ' 6 } c e n n M.9XlXsX0.7.oX~.AXAXAXAXAXAXAXAXAXAXAX",
"AXAXAXAXAXAXAXAXAXAXaX;XQ.&X&XCXuXb & . L * 0 &.p.a d.@.: #.5 } V.#XmX(.#XG.g 8.AXAXAXAXAXAXAXAXAXAX",
"AXAXAXAXAXAXAXAXAXAXr.G Y.hXVXBX..+ $ 6 g $ 0.>.a.k c.i.A 1.-.4.2.=X+XlX^ l.Z 8.AXAXAXAXAXAXAXAXAXAX",
"AXAXAXAXAXAXAXAXAX: 9XG.A.L VXkX@ - f *.$ S.>.a.T.V I.A.K.j G.l.D.J.xXcXyX%.:.t.Y AXAXAXAXAXAXAXAXAX",
"AXAXAXAXAXAXAXAX6.!.&X0 t.CXBXv & 0 j F S.z 1.j.U.M Y.k : aX:.E l.x.;X}.cX` 0 ) ,.yXAXAXAXAXAXAXAXAX",
"AXAXAXAXAXAXAXAXgX@X> l $XBXkX  6 L O.c >.^ z l.Y.N E.1.oXS.[ oXi.v.w vXxX^ Q i u.W AXAXAXAXAXAXAXAX",
"AXAXAXAXAXAXAXAXvX`.}.yXfXNXdXX # 2 %.>.} p.oXM.Y.D E.5Xk.x.D.S.H *.h vXxXuXX.w.T AXAXAXAXAXAXAXAXAX",
"AXAXAXAXAXAXAXAXAX|.fXxXiXsX9.  %.# 6.` 9 %.*.l.~.N E.t.} t 1.i.A OXB dX6.4XX.XX) AXAXAXAXAXAXAXAXAX",
"AXAXAXAXAXAXAXAXC.'.>X'.C.<XB.. 3 3 &.=.>.%.F M.~.S W.y.Q y.k.c.n [ g B.C.u ..o.B.C.AXAXAXAXAXAXAXAX",
"AXAXAXAXAXAXAXAXAXiXeXaX8X8Xp . 4 $ &.p.d.} @.F.~.S E.*.w z.' I.6 h.h eX9XL m.Z.].AXAXAXAXAXAXAXAXAX",
"AXAXAXAXAXAXAXAXAX1 qXqXqX{., O 4 ' i.!.p.t.d.U.~.F E.<.S.;.OXOXc.2.h j.> m.C.<XJ AXAXAXAXAXAXAXAXAX",
"AXAXAXAXAXAXAXAXAXI lX{.lX$X: + 8 e q y.#.B @XF.~.F E.t.[ :.,.} 1.4.V Q.y 3XP pX/ AXAXAXAXAXAXAXAXAX",
"AXAXAXAXAXAXAXAXAXY NX8.vXaX0 % V >.p.Q S :.i.F.~.F E.L.:.4.M c.u.] Z Q.XXiXs pX{.AXAXAXAXAXAXAXAXAX",
"AXAXAXAXAXAXAXAXAXU NX! N.fX0 = z l ] -.g.4.v.a.~.F E.I.%.h.3.I.3.c.B /.+X9XK pX XAXAXAXAXAXAXAXAXAX",
"AXAXAXAXAXAXAXAXAXU NX XxXfX0 2 ' 7.%.e E t.3 j.~.F E.w i.r 3 R 0.n.V Q.7XlX6.xX_.AXAXAXAXAXAXAXAXAX",
"AXAXAXAXAXAXAXAXAXJ NX).W fXe - ' %.d.O.[ =.4.l.~.R E.V.b.2.y.H L.} B Q.9X@XI wX_.AXAXAXAXAXAXAXAXAX",
"AXAXAXAXAXAXAXAXAXK NX XZ.sXe - ' p.M.B k J.$Xl.~.D E.L./.g 2.5.<.=.Z Q.9XyX/ 2X_.AXAXAXAXAXAXAXAXAX",
"AXAXAXAXAXAXAXAXAXI VX{.iXsX0 2 ;.=.1.P.:.s.f.S.Q.N a 2.D.h.P.f.c.z.Z Q.+XxX1 kX_.AXAXAXAXAXAXAXAXAX",
"AXAXAXAXAXAXAXAXAXT NX XpXsXe 6 { 0.E D.R :.u.S.E.R W.oX3.M 4.4.0.I.B Q.9XlXP zX).AXAXAXAXAXAXAXAXAX",
"AXAXAXAXAXAXAXAXAXT NX`.( sXp 2 { z g.x.z h.I.l.~.l Z /.<.n.k.A *.b.B Q.9X(.U 8X).AXAXAXAXAXAXAXAXAX",
"AXAXAXAXAXAXAXAXAXT NX/ X.dXe 2 ] 6.*.l.t.r.h.z.Y.i # 3.r.OXb.2.u.R.Z Q.9XyX_ dX8.AXAXAXAXAXAXAXAXAX",
"AXAXAXAXAXAXAXAXAXT NX/ P aXe 2 { j.h y.P.i.D.S.~.Y k :.7.t.%.J.6XI.B Q.+X}.! wX8.AXAXAXAXAXAXAXAXAX",
"AXAXAXAXAXAXAXAXAXI NX#XbXaX8 ; Z @.<.F.j.&.+.l.:XR R.F g k.4.c.j.3.C U.N.kXL kX/ AXAXAXAXAXAXAXAXAX",
"AXAXAXAXAXAXAXAXAXU xX/ ,X).* = G e *.l.*.4.6 x.~.O.W.] J.k c.3.H G.C J., qX~ 3XI AXAXAXAXAXAXAXAXAX",
"AXAXAXAXAXAXAXAXAXK .XI 6.( c o ' W D s.R z.r.M.~.R R.3.2.q k.-.3.R.m XX, [.J  .~ AXAXAXAXAXAXAXAXAX",
"AXAXAXAXAXAXAXAXNXNXC.X.'.lX.Xo = 0.E g.I.k.1.a.Y.R R.:.n.b.b.;.OXe m CXlXm. .C.lX3XAXAXAXAXAXAXAXAX",
"AXAXAXAXAXAXAXAXNXcX3X! mXcX<XO f z p.d.*.e k.3.Y.R c.r r #.d z.; N B CXkX,X/ pXkX2XAXAXAXAXAXAXAXAX",
"AXAXAXAXAXAXAXAXMXcX2X/ xXlXZ.  g G f.k *.c &.s.U.F I.v.l g.N v.f I.g CXkX'.8.zXkX1XAXAXAXAXAXAXAXAX",
"AXAXAXAXAXAXAXAX9X9X7X7X@X9XZ.  % f g g g g z g U.S T.h B ' ' m m m w OX+X.X].5X.X.XAXAXAXAXAXAXAXAX",
"AXAXAXAXAXAXAXAXcXlXlXxXlXlXlXO q z &.-.g.l.z.I.z.S c.c.T.v.c.c.b.k.k.kXkXiXkXjXpXjXAXAXAXAXAXAXAXAX",
"AXAXAXAXAXAXAXAX3X3X3X3X2X4X,XAXAXAXAXAXAXAXAXAXAXAXAXAXAXAXAXAXAXAXAX1X1X1X1X1X1X1XAXAXAXAXAXAXAXAX",
"AXAXAXAXAXAXAXAXAXAXAXAXAXAXAXAXAXAXAXAXAXAXAXAXAXAXAXAXAXAXAXAXAXAXAXAXAXAXAXAXAXAXAXAXAXAXAXAXAXAX",
"AXAXAXAXAXAXAXAXAXAXAXAXAXAXAXAXAXAXAXAXAXAXAXAXAXAXAXAXAXAXAXAXAXAXAXAXAXAXAXAXAXAXAXAXAXAXAXAXAXAX",
"AXAXAXAXAXAXAXAXAXAXAXAXAXAXAXAXAXAXAXAXAXAXAXAXAXAXAXAXAXAXAXAXAXAXAXAXAXAXAXAXAXAXAXAXAXAXAXAXAXAX",
"AXAXAXAXAXAXAXAXAXAXAXAXAXAXAXAXAXAXAXAXAXAXAXAXAXAXAXAXAXAXAXAXAXAXAXAXAXAXAXAXAXAXAXAXAXAXAXAXAXAX",
"AXAXAXAXAXAXAXAXAXAXAXAXAXAXAXAXAXAXAXAXAXAXAXAXAXAXAXAXAXAXAXAXAXAXAXAXAXAXAXAXAXAXAXAXAXAXAXAXAXAX"
};
