/* XPM */
static char *result[] = {
/* columns rows colors chars-per-pixel */
"50 50 49 1 ",
"  c #423F36",
". c #434037",
"X c #46433A",
"o c #4A463C",
"O c #4D493E",
"+ c #4E4B41",
"@ c #514D42",
"# c #545146",
"$ c #575249",
"% c #5A554A",
"& c #5D594D",
"* c #625E4F",
"= c #635E51",
"- c #666154",
"; c #696355",
": c #6C6658",
"> c #6D685B",
", c #726D5E",
"< c #7D7665",
"1 c #7C7668",
"2 c #7D7869",
"3 c #837D6C",
"4 c #887F6E",
"5 c #847D70",
"6 c #87816E",
"7 c #8A826F",
"8 c #868171",
"9 c #8C8573",
"0 c #8F8975",
"q c #8F8979",
"w c #908774",
"e c #928A76",
"r c #948D7C",
"t c #998F7D",
"y c #97907E",
"u c #9B927E",
"i c #A1967E",
"p c #A3987F",
"a c #979180",
"s c #9D9581",
"d c #9F9884",
"f c #9F9988",
"g c #A19782",
"h c #A29A84",
"j c #A89D84",
"k c #A49C89",
"l c #A89E8A",
"z c #A7A08C",
"x c #AAA18B",
/* pixels */
"shsdhhaduyssgukhhyyhhsuyhuukhkuhsssgkrghajgk6hhhsh",
"yishddihhshssdshpkxuhhzukuduuspusgtuhsshhgsl3sazuh",
"hkjysgggysrskhkdhhhussyzhuuksusihhlshgsghghh3skahx",
"sssyughqatyayhskuuuuyhyuuhuhuhkuhsyrsaagssst3hustt",
"sdsjgsghdakhhhdlskhkhdusahgsuuhhythhhhhgthghsdsg-h",
"htkalhtssdhasksdkhhhsakuuhyhyshysausshsxhkhhhssa;d",
"hhhssshthqjdkkhhusuyhuukksauphguajkhsashassdydyd-u",
"qe9wqe48t89we99ee0yye0e9sw00qyw9sw98eewwd9e9,tq8ry",
"ksssthgashuussuupkkssssghhshhhyuyypghssuukuh6zsdhy",
"hhaswhssuihsakuguuhsdshhgssukhhugggsjssszdus6uuuzu",
"djihkkhhuuysglhjhzshsaaskksasridksksjaaaupuk3hduuu",
"hsahhhhhdsupafhfzuhgdhdjpuhhhkahgghaakasauukuszp;u",
"gsssaujhayykyshhhudziskgdhhhshuhhahkatysuukhsuhs-u",
"ahgkglkhssddsghshuupshhsahdhhhsjssjfdyssukhshszu*h",
"=&==*;*=;=&-;;-=;;-*;-;:<==--=-*e===;=&-s*-;#*-*8-",
"hjkgghhsayysakddhskadhdggghgahkhhhyhdtgghhhs6uukdd",
"uhhhshgdyakhukskusddhzyuksssuuuhttidsssshhds2suahk",
"hhhugdsskspuhhhzddhhuusdhuksszuugajahghjhhhh7shdsk",
"khskgyhrdyskuyshhyuahuuhuduusshssjjtjahgyhadussg-h",
"ajhgsiethkussdadjuukhddyzpdhhssusshthfaguhdayksa=d",
"hhyshjysahhsuhuuukhhskukhzuhdsuayshihdsssyagkkua-a",
"ooXo ooooooXoOXoOoXooXoO*OOoooOo<ooOoooo6oX+ XoX>o",
"ghigkkuhgyraaksjkzuzzuuuhkhuushkhshghaeaushs3hddgh",
"hkhsskethsssahasduhshuhpxsukshksyutygskhjhdf3shgdj",
"ugklhhiuashskdhjksphkguhukhuhaxkhsihggagdgzs3hssds",
"ghghihhphdhaahaldskakhsddauuyagyuhkskssgyihdyhsh=j",
"asguhiyssjuiaghhdhkishkhhysutsdsgssgahsdguhdhpsg=a",
"dgsakuhssjughdfahskggpsypshhssgssghghytsyhksshyh=h",
"rtsystrytrryyeyuweyastrruyteyu9ttereyrrrryrretu9=t",
"ksshsjgghysuhsuksshsahhhhhsassauggskhsudgysp2sushs",
"hhtshsuuujrssypsphkkhshuhhhhyyyyugjsshsjhyup3ghdah",
"dhggkjkykayhhsusshpuihkhakhrhgaysyhshysyhssk3ashas",
"238895894839w678067009396698e9598933y9983846y979%8",
"hdgjhhshstsksshupkkushahahsjskjhghghhayjylsjhghh=d",
"srhujgggsstgypjkpxzuhahsahsusgsgggsshrdkugjkslgg-z",
"jtijsatssagksuhuuduhhshfhhshhdgggggagadhggkkhhkg=s",
"ghggajghshykkkgkzppuhhyaahsjkagkaskhsgahhshd2jshyj",
"ahhhahgadhhkphshuhsshkkhhsssgghsagssgsdhshds3kshhh",
"jssgghurhaupuhhhskukhudhguggshhhssgtghdskjuh3yhkgh",
"%%%%%#%*%%%%&%&&&&&&:&&%%%&&1%%%%%%$e%$%#&%%0&%*.&",
"ahsgjtsghhagtskdyhuhsphuaahrssugsisghahksjdskjhy-s",
"hssgasgguadssdsyuhkyyhhghhdddsssgsususustkssssaa;y",
"shgghsaggsyhddthsksuuukgshdhsgjhguhahyhueajshhkh-s",
"hdajgduhshshkhsysdhhhugigtssshassghthhshhdha<pruhs",
"adssshhhsgyhdykishpuuxpujskhygjaahshshdsphhs3hukuh",
"hdshhhahhhuuhhhsyuzyssdzhkuhasusggjdshashuah3uuuks",
"+@+@@@++@@OO@O@@O#@O&@@OOO@O>@o+@@+@6+O#OO#@<@#O @",
"rkdglsghtthksghhxhuhkdpiuyhkghhjjahgsyihphushkhh-a",
"ahagrlgkaagahhhssuhhahshahggshhhtjtgytahhkyhassd=r",
"ssdsgksshaaaksagsljhgahdghesgughsasagtshadjhhuss;a"
};
